<svg xmlns="http://www.w3.org/2000/svg" width="1em" height="1em" viewBox="0 0 256 256"><path fill="#357a38" d="M197.3 64.4a1.9 1.9 0 0 1-1-1a74.1 74.1 0 0 0-136.6 0a1.9 1.9 0 0 1-1 1A70.5 70.5 0 0 0 18 127.8c-.1 37.7 30.5 69.2 68.2 70.2a69.7 69.7 0 0 0 35.8-8.8V232a6 6 0 0 0 12 0v-42.8a69.5 69.5 0 0 0 34 8.8h1.8c37.7-1 68.3-32.5 68.2-70.2a70.5 70.5 0 0 0-40.7-63.4ZM169.5 186a57.6 57.6 0 0 1-33.7-9.8l-1.8-1v-43.5l44.7-22.3a6 6 0 0 0-5.4-10.8L134 118.3V88a6 6 0 0 0-12 0v54.3l-39.3-19.7a6 6 0 1 0-5.4 10.8l44.7 22.3v19.5l-1.8 1a57.6 57.6 0 0 1-33.7 9.8c-31.2-.8-56.6-26.9-56.5-58.2a58.1 58.1 0 0 1 33.8-52.5a14.3 14.3 0 0 0 7-7.3a62.1 62.1 0 0 1 114.4 0a14.3 14.3 0 0 0 7 7.3a58.1 58.1 0 0 1 33.8 52.5c.1 31.3-25.3 57.4-56.5 58.2Z"/></svg>